0
SECTION
2
HEADER
9
$INSUNITS
70
4
0
ENDSEC
0
SECTION
2
TABLES
0
TABLE
2
LTYPE
0
LTYPE
72
65
70
64
2
CONTINUOUS
3
______
73
0
40
0
0
ENDTAB
0
TABLE
2
LAYER
0
ENDTAB
0
ENDSEC
0
SECTION
2
ENTITIES
0
LINE
8
0
10
2.525
20
-2.525
11
16.525
21
-2.525
0
LINE
8
0
10
2.525
20
-16.525
11
16.525
21
-16.525
0
LINE
8
0
10
2.525
20
-2.525
11
2.525
21
-16.525
0
LINE
8
0
10
16.525
20
-2.525
11
16.525
21
-16.525
0
LINE
8
0
10
21.575
20
-2.525
11
35.575
21
-2.525
0
LINE
8
0
10
21.575
20
-16.525
11
35.575
21
-16.525
0
LINE
8
0
10
21.575
20
-2.525
11
21.575
21
-16.525
0
LINE
8
0
10
35.575
20
-2.525
11
35.575
21
-16.525
0
LINE
8
0
10
40.625
20
-2.525
11
54.625
21
-2.525
0
LINE
8
0
10
40.625
20
-16.525
11
54.625
21
-16.525
0
LINE
8
0
10
40.625
20
-2.525
11
40.625
21
-16.525
0
LINE
8
0
10
54.625
20
-2.525
11
54.625
21
-16.525
0
LINE
8
0
10
59.675
20
-2.525
11
73.675
21
-2.525
0
LINE
8
0
10
59.675
20
-16.525
11
73.675
21
-16.525
0
LINE
8
0
10
59.675
20
-2.525
11
59.675
21
-16.525
0
LINE
8
0
10
73.675
20
-2.525
11
73.675
21
-16.525
0
LINE
8
0
10
2.525
20
-21.575
11
16.525
21
-21.575
0
LINE
8
0
10
2.525
20
-35.575
11
16.525
21
-35.575
0
LINE
8
0
10
2.525
20
-21.575
11
2.525
21
-35.575
0
LINE
8
0
10
16.525
20
-21.575
11
16.525
21
-35.575
0
LINE
8
0
10
21.575
20
-21.575
11
35.575
21
-21.575
0
LINE
8
0
10
21.575
20
-35.575
11
35.575
21
-35.575
0
LINE
8
0
10
21.575
20
-21.575
11
21.575
21
-35.575
0
LINE
8
0
10
35.575
20
-21.575
11
35.575
21
-35.575
0
LINE
8
0
10
40.625
20
-21.575
11
54.625
21
-21.575
0
LINE
8
0
10
40.625
20
-35.575
11
54.625
21
-35.575
0
LINE
8
0
10
40.625
20
-21.575
11
40.625
21
-35.575
0
LINE
8
0
10
54.625
20
-21.575
11
54.625
21
-35.575
0
LINE
8
0
10
59.675
20
-21.575
11
73.675
21
-21.575
0
LINE
8
0
10
59.675
20
-35.575
11
73.675
21
-35.575
0
LINE
8
0
10
59.675
20
-21.575
11
59.675
21
-35.575
0
LINE
8
0
10
73.675
20
-21.575
11
73.675
21
-35.575
0
LINE
8
0
10
2.525
20
-40.625
11
16.525
21
-40.625
0
LINE
8
0
10
2.525
20
-54.625
11
16.525
21
-54.625
0
LINE
8
0
10
2.525
20
-40.625
11
2.525
21
-54.625
0
LINE
8
0
10
16.525
20
-40.625
11
16.525
21
-54.625
0
LINE
8
0
10
21.575
20
-40.625
11
35.575
21
-40.625
0
LINE
8
0
10
21.575
20
-54.625
11
35.575
21
-54.625
0
LINE
8
0
10
21.575
20
-40.625
11
21.575
21
-54.625
0
LINE
8
0
10
35.575
20
-40.625
11
35.575
21
-54.625
0
LINE
8
0
10
40.625
20
-40.625
11
54.625
21
-40.625
0
LINE
8
0
10
40.625
20
-54.625
11
54.625
21
-54.625
0
LINE
8
0
10
40.625
20
-40.625
11
40.625
21
-54.625
0
LINE
8
0
10
54.625
20
-40.625
11
54.625
21
-54.625
0
LINE
8
0
10
59.675
20
-40.625
11
73.675
21
-40.625
0
LINE
8
0
10
59.675
20
-54.625
11
73.675
21
-54.625
0
LINE
8
0
10
59.675
20
-40.625
11
59.675
21
-54.625
0
LINE
8
0
10
73.675
20
-40.625
11
73.675
21
-54.625
0
LINE
8
0
10
2.525
20
-59.675
11
16.525
21
-59.675
0
LINE
8
0
10
2.525
20
-73.675
11
16.525
21
-73.675
0
LINE
8
0
10
2.525
20
-59.675
11
2.525
21
-73.675
0
LINE
8
0
10
16.525
20
-59.675
11
16.525
21
-73.675
0
LINE
8
0
10
21.575
20
-59.675
11
35.575
21
-59.675
0
LINE
8
0
10
21.575
20
-73.675
11
35.575
21
-73.675
0
LINE
8
0
10
21.575
20
-59.675
11
21.575
21
-73.675
0
LINE
8
0
10
35.575
20
-59.675
11
35.575
21
-73.675
0
LINE
8
0
10
40.625
20
-59.675
11
54.625
21
-59.675
0
LINE
8
0
10
40.625
20
-73.675
11
54.625
21
-73.675
0
LINE
8
0
10
40.625
20
-59.675
11
40.625
21
-73.675
0
LINE
8
0
10
54.625
20
-59.675
11
54.625
21
-73.675
0
LINE
8
0
10
59.675
20
-59.675
11
73.675
21
-59.675
0
LINE
8
0
10
59.675
20
-73.675
11
73.675
21
-73.675
0
LINE
8
0
10
59.675
20
-59.675
11
59.675
21
-73.675
0
LINE
8
0
10
73.675
20
-59.675
11
73.675
21
-73.675
0
LINE
8
0
10
0
20
-76.2
11
76.2
21
-76.2
0
LINE
8
0
10
0
20
0
11
76.2
21
0
0
LINE
8
0
10
0
20
-76.2
11
0
21
0
0
LINE
8
0
10
76.2
20
-76.2
11
76.2
21
0
0
ENDSEC
0
EOF